<?xml version="1.0" standalone="no"?><svg xmlns:xlink="http://www.w3.org/1999/xlink" xmlns="http://www.w3.org/2000/svg" viewBox="0 0 1700 784.6177589352991" preserveAspectRatio="xMaxYMax slice"><g transform="scale(1.543307944404601)"><rect x="0" y="0" width="1101.5333333333333" height="508.4" fill="#000000"/><rect x="169.46666666666667" y="0" width="84.73333333333333" height="84.73333333333333" fill="#000000"/><path d="M 338.93 0 A 84.73 84.73 0 0 1  423.66 84.73 L 338.93 0 A 84.73 84.73 0 0 0 423.66 84.73" fill="#2c29cd"/><path d="M 423.67 0 A 84.73 84.73 0 0 1  508.40000000000003 84.73 L 423.67 0 A 84.73 84.73 0 0 0 508.40000000000003 84.73" fill="#2321a3"/><path d="M 677.87 84.73 A 84.73 84.73 0 0 1  762.6 0 L 677.87 84.73 A 84.73 84.73 0 0 0 762.6 0" fill="#2f2cdd"/><rect x="762.6" y="0" width="84.73333333333333" height="84.73333333333333" fill="#000000"/><path d="M 762.6 42.37 A 42.37 42.37 0 0 1  804.97 0 L 762.6 42.37 A 42.37 42.37 0 0 0 804.97 0" fill="#14135f"/><path d="M 804.97 42.37 A 42.37 42.37 0 0 1  847.34 0 L 804.97 42.37 A 42.37 42.37 0 0 0 847.34 0" fill="#161466"/><path d="M 762.6 84.74 A 42.37 42.37 0 0 1  804.97 42.37 L 762.6 84.74 A 42.37 42.37 0 0 0 804.97 42.37" fill="#17166e"/><path d="M 847.33 0 A 84.73 84.73 0 0 1  932.0600000000001 84.73 L 847.33 0 A 84.73 84.73 0 0 0 932.0600000000001 84.73" fill="#060601"/><path d="M 423.67 169.46 A 84.73 84.73 0 0 1  508.40000000000003 84.73 L 423.67 169.46 A 84.73 84.73 0 0 0 508.40000000000003 84.73" fill="#2321a3"/><rect x="762.6" y="84.73333333333333" width="84.73333333333333" height="84.73333333333333" fill="#000000"/><path d="M 762.6 84.73 A 42.37 42.37 0 0 1  804.97 127.1 L 762.6 84.73 A 42.37 42.37 0 0 0 804.97 127.1" fill="#090901"/><path d="M 762.6 127.1 A 42.37 42.37 0 0 1  804.97 169.47 L 762.6 127.1 A 42.37 42.37 0 0 0 804.97 169.47" fill="#080828"/><path d="M 847.33 169.46 A 84.73 84.73 0 0 1  932.0600000000001 84.73 L 847.33 169.46 A 84.73 84.73 0 0 0 932.0600000000001 84.73" fill="#2926c0"/><path d="M 932.07 84.73 A 84.73 84.73 0 0 1  1016.8000000000001 169.46 L 932.07 84.73 A 84.73 84.73 0 0 0 1016.8000000000001 169.46" fill="#898712"/><rect x="1016.8" y="84.73333333333333" width="84.73333333333333" height="84.73333333333333" fill="#000000"/><path d="M 1016.8 127.1 A 42.37 42.37 0 0 1  1059.1699999999998 169.47 L 1016.8 127.1 A 42.37 42.37 0 0 0 1059.1699999999998 169.47" fill="#3633fd"/><rect x="677.8666666666667" y="169.46666666666667" width="84.73333333333333" height="84.73333333333333" fill="#000000"/><path d="M 720.23 254.20000000000002 A 42.37 42.37 0 0 1  762.6 211.83 L 720.23 254.20000000000002 A 42.37 42.37 0 0 0 762.6 211.83" fill="#2c29cf"/><rect x="932.0666666666667" y="169.46666666666667" width="84.73333333333333" height="84.73333333333333" fill="#000000"/><path d="M 974.43 254.20000000000002 A 42.37 42.37 0 0 1  1016.8 211.83 L 974.43 254.20000000000002 A 42.37 42.37 0 0 0 1016.8 211.83" fill="#060601"/><rect x="338.93333333333334" y="254.2" width="84.73333333333333" height="84.73333333333333" fill="#000000"/><path d="M 338.93 296.57 A 42.37 42.37 0 0 1  381.3 254.2 L 338.93 296.57 A 42.37 42.37 0 0 0 381.3 254.2" fill="#100f4c"/><path d="M 381.3 296.57 A 42.37 42.37 0 0 1  423.67 338.94 L 381.3 296.57 A 42.37 42.37 0 0 0 423.67 338.94" fill="#040413"/><rect x="423.6666666666667" y="254.2" width="84.73333333333333" height="84.73333333333333" fill="#000000"/><path d="M 423.67 296.57 A 42.37 42.37 0 0 1  466.04 254.2 L 423.67 296.57 A 42.37 42.37 0 0 0 466.04 254.2" fill="#2c29ce"/><path d="M 466.03 254.2 A 42.37 42.37 0 0 1  508.4 296.57 L 466.03 254.2 A 42.37 42.37 0 0 0 508.4 296.57" fill="#3532fa"/><path d="M 466.03 338.94 A 42.37 42.37 0 0 1  508.4 296.57 L 466.03 338.94 A 42.37 42.37 0 0 0 508.4 296.57" fill="#09092b"/><path d="M 508.4 254.2 A 84.73 84.73 0 0 1  593.13 338.93 L 508.4 254.2 A 84.73 84.73 0 0 0 593.13 338.93" fill="#4c4b0a"/><path d="M 593.13 254.2 A 84.73 84.73 0 0 1  677.86 338.93 L 593.13 254.2 A 84.73 84.73 0 0 0 677.86 338.93" fill="#201e96"/><path d="M 677.87 254.2 A 84.73 84.73 0 0 1  762.6 338.93 L 677.87 254.2 A 84.73 84.73 0 0 0 762.6 338.93" fill="#bbb918"/><rect x="847.3333333333334" y="254.2" width="84.73333333333333" height="84.73333333333333" fill="#000000"/><path d="M 847.33 296.57 A 42.37 42.37 0 0 1  889.7 254.2 L 847.33 296.57 A 42.37 42.37 0 0 0 889.7 254.2" fill="#2c2ad2"/><rect x="932.0666666666667" y="254.2" width="84.73333333333333" height="84.73333333333333" fill="#000000"/><path d="M 974.43 296.57 A 42.37 42.37 0 0 1  1016.8 338.94 L 974.43 296.57 A 42.37 42.37 0 0 0 1016.8 338.94" fill="#c1be19"/><rect x="338.93333333333334" y="338.93333333333334" width="84.73333333333333" height="84.73333333333333" fill="#000000"/><rect x="423.6666666666667" y="338.93333333333334" width="84.73333333333333" height="84.73333333333333" fill="#000000"/><path d="M 423.67 423.67 A 42.37 42.37 0 0 1  466.04 381.3 L 423.67 423.67 A 42.37 42.37 0 0 0 466.04 381.3" fill="#0b0b36"/><path d="M 466.03 381.3 A 42.37 42.37 0 0 1  508.4 423.67 L 466.03 381.3 A 42.37 42.37 0 0 0 508.4 423.67" fill="#373607"/><rect x="932.0666666666667" y="338.93333333333334" width="84.73333333333333" height="84.73333333333333" fill="#000000"/><path d="M 974.43 381.3 A 42.37 42.37 0 0 1  1016.8 423.67 L 974.43 381.3 A 42.37 42.37 0 0 0 1016.8 423.67" fill="#f4f120"/><rect x="0" y="423.6666666666667" width="84.73333333333333" height="84.73333333333333" fill="#000000"/><path d="M 0 466.04 A 42.37 42.37 0 0 1  42.37 423.67 L 0 466.04 A 42.37 42.37 0 0 0 42.37 423.67" fill="#2f2cde"/><path d="M 42.37 466.04 A 42.37 42.37 0 0 1  84.74 423.67 L 42.37 466.04 A 42.37 42.37 0 0 0 84.74 423.67" fill="#aba916"/><rect x="169.46666666666667" y="423.6666666666667" width="84.73333333333333" height="84.73333333333333" fill="#000000"/><path d="M 254.2 508.40000000000003 A 84.73 84.73 0 0 1  338.93 423.67 L 254.2 508.40000000000003 A 84.73 84.73 0 0 0 338.93 423.67" fill="#09082a"/><rect x="423.6666666666667" y="423.6666666666667" width="84.73333333333333" height="84.73333333333333" fill="#000000"/><path d="M 423.67 466.04 A 42.37 42.37 0 0 1  466.04 423.67 L 423.67 466.04 A 42.37 42.37 0 0 0 466.04 423.67" fill="#4e4d0a"/><path d="M 466.03 466.03 A 42.37 42.37 0 0 1  508.4 508.4 L 466.03 466.03 A 42.37 42.37 0 0 0 508.4 508.4" fill="#030300"/><path d="M 677.87 423.67 A 84.73 84.73 0 0 1  762.6 508.40000000000003 L 677.87 423.67 A 84.73 84.73 0 0 0 762.6 508.40000000000003" fill="#2220a2"/><path d="M 1016.8 508.40000000000003 A 84.73 84.73 0 0 1  1101.53 423.67 L 1016.8 508.40000000000003 A 84.73 84.73 0 0 0 1101.53 423.67" fill="#100f4a"/></g></svg>